<?xml version="1.0" encoding="utf-8"?>
<!-- Generator: Adobe Illustrator 23.1.1, SVG Export Plug-In . SVG Version: 6.00 Build 0)  -->
<svg version="1.1" id="圖層_1" xmlns="http://www.w3.org/2000/svg" xmlns:xlink="http://www.w3.org/1999/xlink" x="0px" y="0px"
	 viewBox="0 0 505 211" style="enable-background:new 0 0 505 211;" xml:space="preserve">
<style type="text/css">
	.st0{fill:#F0D12A;}
	.st1{fill:none;}
	.st2{fill:#F5AB29;}
</style>
<g>
	<g>
		<g>
			<g>
				<path d="M197.5,68.9c5.8-1.6,11.5-3.4,17.1-5.4c6-2.1,3.4-11.8-2.7-9.6c-5.6,2-11.4,3.8-17.1,5.4
					C188.6,61,191.2,70.6,197.5,68.9L197.5,68.9z"/>
			</g>
		</g>
		<g>
			<g>
				<path d="M185.1,85.9c-0.1,5.2,0.7,10.4,2.3,15.3c1.4,4.3,6.6,4.7,9.1,1.2c0.3-0.4,0.6-0.9,1-1.3c1.6-2.2,0.4-5.6-1.8-6.8
					c-2.5-1.5-5.3-0.4-6.8,1.8c-0.3,0.4-0.6,0.9-1,1.3c3,0.4,6.1,0.8,9.1,1.2c-1.4-4.2-2-8.3-1.9-12.7
					C195.2,79.5,185.2,79.5,185.1,85.9L185.1,85.9z"/>
			</g>
		</g>
		<g>
			<g>
				<path d="M192.8,87.8c10.2-5.2,20.5-6.1,31.7-7.5c0.8-0.1,2.9-0.7,3.6-0.4c0-0.8,0-0.8,0-0.1c0,0.4,0,0.7-0.1,1.1
					c-0.2,2.6-0.6,5.1-0.9,7.7c-0.3,2.7-0.5,5.6-1.1,8.3c-0.6,2.5-1.3,3.8-3.7,1.8c-4.9-4-12.1,3-7.1,7.1c6.4,5.2,15.3,5.9,19.2-2.6
					c1.8-3.9,1.9-8.5,2.4-12.7c0.5-4.3,1.9-9.3,0.9-13.6c-2.3-10.1-14-6.4-21.4-5.5c-4.9,0.6-9.9,1-14.8,2.1
					c-4.9,1.2-9.5,3.4-14,5.7C182,82.1,187.1,90.8,192.8,87.8L192.8,87.8z"/>
			</g>
		</g>
		<g>
			<g>
				<path d="M200,65.9c0.7,7,1.4,13.9,1.8,20.9c0.4,6.2,2,14.2-0.2,20.2s7.4,8.7,9.6,2.7c2.4-6.5,1.1-14.2,0.6-20.9
					c-0.5-7.6-1.1-15.2-1.9-22.8C209.3,59.6,199.3,59.5,200,65.9L200,65.9z"/>
			</g>
		</g>
		<g>
			<g>
				<path d="M192.9,92.3c1.6,0.3,4,0.5,5.5,1.2c-0.8-1-1.5-2-2.3-3c-0.7-1.9-0.9-0.6-2.2,0.7c-3.2,3.5-0.7,8,3.5,8.5
					c3.5,0.5,7.1-2.6,10-4.3c4-2.4,8.1-4.7,12.1-7.1c-2.4-1.9-4.9-3.8-7.3-5.6c-1.3,4.3-4,8-0.5,12.2c3,3.7,8.1,3.6,12.4,3.7
					c6.4,0.2,6.4-9.8,0-10c-1.1,0-2.1-0.1-3.2-0.1c-1.2-0.4-1.5,0.1-1,1.5c0.2-1.5,1.5-3.2,2-4.7c1.2-4.2-3.6-7.8-7.3-5.6
					c-3.2,1.9-6.5,3.8-9.7,5.7c-1.6,0.9-3.2,1.9-4.8,2.8c-0.5,0.3-1.1,0.6-1.6,0.9c-1.9,1.1-2.2,1.3-0.9,0.5
					c1.2,2.8,2.4,5.7,3.5,8.5c2.5-2.7,5.9-5.6,5-9.7c-1-4.8-6.6-5.1-10.5-6C189.2,81.3,186.6,90.9,192.9,92.3L192.9,92.3z"/>
			</g>
		</g>
	</g>
	<g>
		<g>
			<g>
				<path class="st0" d="M196,66.5c5.8-1.6,11.5-3.4,17.1-5.4c2.3-0.8,1.3-4.4-1-3.6c-5.6,2-11.4,3.8-17.1,5.4
					C192.7,63.5,193.7,67.2,196,66.5L196,66.5z"/>
			</g>
		</g>
		<g>
			<g>
				<path class="st0" d="M187.6,86.6c-0.1,5,0.7,9.8,2.2,14.5c0.5,1.6,2.5,1.8,3.4,0.4c0.3-0.4,0.6-0.9,1-1.3c1.4-2-1.8-3.8-3.2-1.9
					c-0.3,0.4-0.6,0.9-1,1.3c1.1,0.1,2.3,0.3,3.4,0.4c-1.4-4.4-2.1-8.9-2-13.5C191.4,84.1,187.7,84.1,187.6,86.6L187.6,86.6z"/>
			</g>
		</g>
		<g>
			<g>
				<path class="st0" d="M190.6,85.8c10.7-5.5,21.5-6.5,33.3-7.9c3.3-0.4,6.5-0.3,6.7,3.8c0.1,2.5-0.6,5.2-0.9,7.7
					c-0.7,5.3-1.3,19.5-10.1,12.2c-1.9-1.5-4.5,1.1-2.7,2.7c4.9,4,11.4,4.7,14.3-2c1.5-3.4,1.6-7.5,2-11.1c0.5-4,1.9-8.8,1-12.8
					c-1.7-7.9-12.9-3.9-18.4-3.2c-9.9,1.2-18.3,2.9-27.1,7.4C186.5,83.6,188.4,86.9,190.6,85.8L190.6,85.8z"/>
			</g>
		</g>
		<g>
			<g>
				<path class="st0" d="M202.5,66.5c0.7,7,1.4,13.9,1.8,20.9c0.4,6.5,2,14.7-0.3,21c-0.8,2.3,2.8,3.2,3.6,1
					c2.3-6.2,0.9-13.6,0.5-20.1c-0.5-7.6-1.1-15.2-1.9-22.8C206,64.2,202.2,64.1,202.5,66.5L202.5,66.5z"/>
			</g>
		</g>
		<g>
			<g>
				<path class="st0" d="M193.1,89.9c3.7,0.8,5.2,1.1,2.4,4.1c-1.2,1.3-0.2,3,1.3,3.2c3,0.4,6-2.4,8.4-3.8c4-2.4,8.1-4.7,12.1-7.1
					c-0.9-0.7-1.8-1.4-2.8-2.1c-0.9,3.1-3.7,6.4-1.1,9.5c2.3,2.8,6.8,2.4,9.9,2.5c2.4,0.1,2.4-3.7,0-3.8c-1.8-0.1-7.1,0.6-7.2-2.6
					c0-1.1,1.6-3.4,2-4.7c0.5-1.6-1.4-2.9-2.8-2.1c-3.2,1.9-6.5,3.8-9.7,5.7c-2,1.2-6.6,5.1-8.9,4.7c0.4,1.1,0.9,2.1,1.3,3.2
					c1.5-1.6,4.7-4,4.2-6.6c-0.5-3.3-5.9-3.3-8.3-3.8C191.7,85.8,190.7,89.4,193.1,89.9L193.1,89.9z"/>
			</g>
		</g>
	</g>
</g>
<g>
	<g>
		<g>
			<g>
				<path d="M260.6,80c0.5,3,0.7,6.1,0.7,9.1c3.3,0,6.7,0,10,0c-0.1-0.9-0.2-1.7-0.4-2.6c-1.7-6.2-11.3-3.6-9.6,2.7
					c0,0,0-0.1,0.1-0.1c0.3,2.7,2,5,5,5c2.7,0,5-2.3,5-5c0-4-0.4-7.9-1.1-11.8c-0.4-2.7-3.7-4.2-6.2-3.5
					C261.3,74.6,260.2,77.3,260.6,80L260.6,80z"/>
			</g>
		</g>
		<g>
			<g>
				<path d="M267.2,82.3c3.6-1.2,7.2-2.7,10.9-3.6c-0.9,0-1.8,0-2.7,0c0.2,0,0.3,0.1,0.5,0.1c-1-0.8-2-1.5-3-2.3c-0.5-0.7,0,2,0,2.2
					c0.1,1.3,0.2,2.5,0.2,3.8c0.1,2.3,0.3,4.7,0.1,7.1c0.2-0.8,0.5-1.7,0.7-2.5c-0.1,0.2-0.2,0.4-0.3,0.6c1-0.8,2-1.5,3-2.3
					c-0.2,0.1-0.4,0.1-0.6,0.2c1.6,0.4,3.2,0.9,4.9,1.3c-0.1-0.1-0.3-0.3-0.4-0.4c-4.5-4.6-11.5,2.4-7.1,7.1
					c0.1,0.1,0.3,0.3,0.4,0.4c1.3,1.3,3.1,1.7,4.9,1.3c4.3-1.1,4.7-5,4.6-8.8c-0.1-4-0.1-8.2-0.8-12.1c-1.6-9.3-12.6-3.5-18-1.6
					C258.4,74.6,261,84.3,267.2,82.3L267.2,82.3z"/>
			</g>
		</g>
		<g>
			<g>
				<path d="M274.1,87.3C274.5,86.9,274.5,86.9,274.1,87.3c0.2-0.2,0.4-0.3,0.7-0.5c0.4-0.3,0.8-0.5,1.3-0.7
					c0.2-0.1,0.4-0.2,0.6-0.3c-0.6,0.2-0.6,0.2,0,0c0.5-0.2,1.1-0.3,1.6-0.5c2.5-0.6,4.3-3.6,3.5-6.2c-0.9-2.6-3.4-4.1-6.2-3.5
					c-3.2,0.8-6,2.3-8.5,4.4c-2,1.7-1.9,5.4,0,7.1C269.2,89.3,272,89.1,274.1,87.3L274.1,87.3z"/>
			</g>
		</g>
		<g>
			<g>
				<path d="M266.7,82.1c-0.2,2.7-0.3,5.4-0.2,8.1c0.1,2.6,2.3,5.1,5,5s5.1-2.2,5-5c-0.1-2.7,0-5.4,0.2-8.1c0.2-2.6-2.4-5.1-5-5
					C268.8,77.2,266.9,79.3,266.7,82.1L266.7,82.1z"/>
			</g>
		</g>
		<g>
			<g>
				<path d="M256.7,94.7c0.6,3.2,1,6.4,1.3,9.6c0.6,6.4,9.5,6.5,10,0c0-0.3,0-0.7,0.1-1c0.2-2.7-2.4-5-5-5c-2.9,0-4.8,2.3-5,5
					c0,0.3,0,0.7-0.1,1c3.3,0,6.7,0,10,0c-0.4-4.1-0.9-8.2-1.7-12.2c-0.5-2.7-3.7-4.2-6.2-3.5C257.4,89.4,256.2,92.1,256.7,94.7
					L256.7,94.7z"/>
			</g>
		</g>
		<g>
			<g>
				<path d="M263,98.7c5.8-2.3,14.4-6.2,20.8-4.3c-1.2-1.2-2.3-2.3-3.5-3.5c0.4,1.7-0.1,4.2-0.3,5.9c-0.1,0.9-0.1,1.8-0.2,2.7
					c-0.9,1.7-0.3,2.2,1.7,1.5c-4-5-11.1,2.1-7.1,7.1c2.9,3.7,8.8,3.5,12,0.3c4-4,4-11.7,3.9-16.9c-0.2-13.6-23-5.2-30-2.4
					C254.5,91.4,257,101.1,263,98.7L263,98.7z"/>
			</g>
		</g>
		<g>
			<g>
				<path d="M265.2,96.4c-0.2,1.7,0,3.4,0.6,5c3-1.3,6.1-2.6,9.1-3.9c-0.1-0.1-0.1-0.2-0.2-0.3c-0.8-1.1-1.6-1.9-3-2.3
					c-1.2-0.3-2.8-0.2-3.9,0.5s-2,1.7-2.3,3c-0.3,1.2-0.3,2.8,0.5,3.9c0.1,0.1,0.1,0.2,0.2,0.3c0.8,1,1.6,2,3,2.3
					c1.1,0.3,2.2,0.2,3.3-0.3c2.2-0.9,3.7-3.5,2.9-5.9c-0.2-0.5-0.3-1-0.4-1.6c0.1,0.4,0.1,0.9,0.2,1.3c-0.1-0.7-0.1-1.4,0-2.1
					c0.1-1.2-0.7-2.7-1.5-3.5c-0.9-0.9-2.3-1.5-3.5-1.5c-1.3,0.1-2.6,0.5-3.5,1.5C265.7,93.9,265.3,95,265.2,96.4L265.2,96.4z"/>
			</g>
		</g>
		<g>
			<g>
				<path d="M273,100.3c-0.9,0.7,0.2-0.1,0.3-0.2c0.8-0.5-0.4,0.1,0.1-0.1c0.3-0.1,0.7-0.2,1-0.3c1-0.3-0.8-0.1,0.2,0
					c-0.8-0.2-1.7-0.5-2.5-0.7c-0.2-0.1-0.3-0.2-0.5-0.4c-0.4-0.7-0.9-1.5-1.3-2.2c0.1,0.2,0.2,1.2,0.2,0.4c0,0.1,0.1,1.4,0.1,0.8
					c0.1-0.2,0.1-0.2,0,0c-0.1,0.4,0,0.3,0.2-0.3c-0.6,1.2,1.7-1.2,0.5-0.5c-2.3,1.3-3.2,4.6-1.8,6.8c1.5,2.3,4.4,3.1,6.8,1.8
					c2-1.1,3.4-3.1,4-5.4c0.6-2.5,0.4-6-1.2-8.1c-3.5-4.5-9.6-1.8-13.2,1c-2,1.6-1.8,5.4,0,7.1C268.1,102.3,270.8,102.1,273,100.3
					L273,100.3z"/>
			</g>
		</g>
		<g>
			<g>
				<path d="M272.1,106.5c1.9-0.8,3.7-1.6,5.4-2.9c1.1-0.8,1.9-1.6,2.3-3c0.3-1.2,0.2-2.8-0.5-3.9c-0.7-1.1-1.7-2-3-2.3
					c-1.2-0.3-2.8-0.3-3.9,0.5c-1.2,0.9-2.5,1.7-3.9,2.3c0.4-0.2,0.8-0.3,1.2-0.5c-0.1,0-0.2,0.1-0.3,0.1c-1.3,0.5-2.3,1.1-3,2.3
					c-0.6,1.1-0.9,2.7-0.5,3.9s1.1,2.4,2.3,3C269.3,106.6,270.9,107,272.1,106.5L272.1,106.5z"/>
			</g>
		</g>
		<g>
			<g>
				<path d="M250.3,89.6c0.2,0.1,0.4,0.2,0.5,0.4c-0.3-0.3-0.7-0.5-1-0.8c0.5,0.4,0.9,0.8,1.2,1.2c-0.3-0.3-0.5-0.7-0.8-1
					c0.1,0.2,0.3,0.3,0.4,0.5c0.7,1.1,1.7,1.9,3,2.3c1.2,0.3,2.8,0.2,3.9-0.5s2-1.7,2.3-3s0.2-2.7-0.5-3.9c-1-1.6-2.3-2.9-3.9-3.9
					c-1.1-0.7-2.7-0.8-3.9-0.5c-1.2,0.3-2.4,1.2-3,2.3C247.2,85.3,247.9,88.1,250.3,89.6L250.3,89.6z"/>
			</g>
		</g>
		<g>
			<g>
				<path d="M249.8,96.7c0.2,0,0.5,0.1,0.7,0.1c-1-0.8-2-1.5-3-2.3c-0.9-1.2-0.5-0.9-0.8,0.8c-0.2,1-0.1,2.1,0.1,3.1
					c0.2,0.7,0.6,1.6,0.9,2.2c0.3,0.5,0.6,1,0.9,1.5c0.7,1.4,1.5,0.7,2.4-2.2c-2,2.6-4,5.2-6.1,7.9c13,9.1,40.7,18.9,53.1,3.5
					c4-5-3-12.1-7.1-7.1c-4.5,5.5-12.5,5.1-18.9,4.1c-8.1-1.3-15.4-4.5-22.1-9.2c-4.7-3.3-10.2,4-6.1,7.9c5,4.6,15.2,4.5,15.3-4.3
					c0-1.7-0.6-3.1-1.3-4.6c-1-2-0.7-1.7-0.6-3.9c0.2-3.3-1.5-6.6-4.9-7.2C246.1,85.9,243.4,95.6,249.8,96.7L249.8,96.7z"/>
			</g>
		</g>
	</g>
	<g>
		<g>
			<g>
				<path class="st0" d="M263,79.5c0.6,3.3,0.8,6.6,0.8,10c1.3,0,2.5,0,3.8,0c-0.1-0.6-0.2-1.1-0.3-1.7c-0.6-2.3-4.2-1.3-3.6,1
					c0.1,0.2,0.1,0.5,0.2,0.7c0.3,2.3,3.8,2.5,3.8,0c0-3.7-0.4-7.3-1-11C266.2,76.2,262.6,77.2,263,79.5L263,79.5z"/>
			</g>
		</g>
		<g>
			<g>
				<path class="st0" d="M265.7,79.7c1.9-0.6,3.9-1.3,5.8-1.9c1.2-0.4,2.3-0.8,3.5-1.1c1.7-0.5,0.7-0.5,0.3,0.6
					c-0.5,1.6,0.3,4.7,0.4,6.4c0.1,1.1,0.1,2.1,0.1,3.2c0,0.4,0,0.9,0,1.3c-0.3,1.3-0.2,1.6,0.4,0.9c0.6,0.2,1.2,0.3,1.8,0.5
					c-0.1-0.1-0.3-0.3-0.4-0.4c-1.7-1.7-4.3,0.9-2.7,2.7c0.1,0.1,0.3,0.3,0.4,0.4c0.5,0.5,1.2,0.6,1.8,0.5c2.7-0.7,2.4-3.5,2.3-5.8
					c-0.1-3.8,0-8-0.7-11.7c-0.4-1.8-1.3-2.8-3.2-2.6c-3.5,0.4-7.5,2.4-10.9,3.6C262.4,76.8,263.4,80.4,265.7,79.7L265.7,79.7z"/>
			</g>
		</g>
		<g>
			<g>
				<path class="st0" d="M271.3,85.5c1.6-1.3,3.4-2.2,5.4-2.7c2.3-0.6,1.4-4.2-1-3.6c-2.6,0.6-5,1.9-7.1,3.6
					C266.8,84.4,269.4,87,271.3,85.5L271.3,85.5z"/>
			</g>
		</g>
		<g>
			<g>
				<path class="st0" d="M269.2,82.5c-0.2,2.7-0.3,5.4-0.2,8.1c0.1,2.4,3.8,2.4,3.8,0c-0.1-2.7,0-5.4,0.2-8.1
					C273.1,80.1,269.4,80.1,269.2,82.5L269.2,82.5z"/>
			</g>
		</g>
		<g>
			<g>
				<path class="st0" d="M259.1,94.3c0.6,3.5,1.1,6.9,1.4,10.4c0.2,2.4,3.6,2.4,3.8,0c0-0.3,0-0.7,0.1-1c0.2-2.4-3.6-2.4-3.8,0
					c0,0.3,0,0.7-0.1,1c1.3,0,2.5,0,3.8,0c-0.3-3.8-0.8-7.6-1.6-11.4C262.3,90.9,258.7,91.9,259.1,94.3L259.1,94.3z"/>
			</g>
		</g>
		<g>
			<g>
				<path class="st0" d="M261.6,96.1c5.3-2.1,10.5-4,16.2-4.4c0.9-0.1,2.5-0.4,3.4-0.1c1.8,0.6,1.4,1.2,1.5,3
					c0.1,1.2-0.1,2.4-0.2,3.6c0,0.2-0.9,9.1-3.8,5.5c-1.5-1.9-4.1,0.8-2.7,2.7c1.9,2.4,5.4,2.3,7.6,0.3c3.3-3.2,3.1-10.6,3-14.7
					c-0.2-4.8-3.9-4.2-8-4c-6.4,0.3-12.2,2.3-18.1,4.6C258.4,93.4,259.3,97,261.6,96.1L261.6,96.1z"/>
			</g>
		</g>
		<g>
			<g>
				<path class="st0" d="M267.7,96.8c-0.2,1.4,0,2.8,0.5,4.2c1.1-0.5,2.3-1,3.4-1.4c-0.1-0.1-0.1-0.2-0.2-0.3
					c-0.6-0.8-1.6-1.2-2.6-0.7c-0.8,0.5-1.3,1.8-0.7,2.6c0.1,0.1,0.1,0.2,0.2,0.3c0.6,0.7,1.4,1.2,2.3,0.8c0.8-0.4,1.4-1.3,1.1-2.2
					c-0.4-1.1-0.4-2.1-0.3-3.2c0.1-1-0.9-1.9-1.9-1.9C268.5,95,267.8,95.8,267.7,96.8L267.7,96.8z"/>
			</g>
		</g>
		<g>
			<g>
				<path class="st0" d="M270.2,98.5c0.5-0.4,1.1-0.7,1.6-1c0.4-0.2,0.8-0.3,1.2-0.4c0.5-0.1,0.9,0.1,0.3-0.4
					c-0.7-0.5-0.3,0-0.3,0.6c0,0.4,0.1,0.8,0,1.3c-0.1,0.7-0.2,1.2-0.8,1.5c-2.1,1.2-0.2,4.4,1.9,3.2c1.3-0.7,2.2-2,2.5-3.5
					c0.3-1.6,0.3-4-0.6-5.3c-1.9-2.8-6.6-0.2-8.5,1.3c-0.8,0.6-0.7,2,0,2.7C268.3,99.3,269.4,99.2,270.2,98.5L270.2,98.5z"/>
			</g>
		</g>
		<g>
			<g>
				<path class="st0" d="M270.6,103.9c1.7-0.7,3.2-1.5,4.6-2.6c0.8-0.6,1.2-1.6,0.7-2.6c-0.5-0.8-1.8-1.3-2.6-0.7
					c-1.1,0.9-2.4,1.6-3.7,2.2c-0.9,0.4-1.6,1.2-1.3,2.3C268.6,103.5,269.7,104.3,270.6,103.9L270.6,103.9z"/>
			</g>
		</g>
		<g>
			<g>
				<path class="st0" d="M251.3,87.3c0.1,0.1,0.2,0.1,0.3,0.2c0.1,0.1,0.1,0.1,0,0c0.2,0.2,0.4,0.3,0.5,0.5c0.2,0.2,0.3,0.3,0.4,0.5
					c0.2,0.2-0.1-0.2,0,0c0.1,0.1,0.2,0.2,0.2,0.3c0.5,0.8,1.7,1.2,2.6,0.7c0.8-0.5,1.2-1.7,0.7-2.6c-0.7-1.1-1.7-2.1-2.8-2.8
					c-0.8-0.5-2.1-0.2-2.6,0.7C250.1,85.7,250.4,86.7,251.3,87.3L251.3,87.3z"/>
			</g>
		</g>
		<g>
			<g>
				<path class="st0" d="M250,94.1c-0.9-0.2-0.8,3.4-0.7,3.9c0.1,0.5,0.4,1,0.6,1.5c0.3,0.5,0.6,1,0.9,1.5c1,1.1,0.1,1.6-2.5,1.5
					c-0.8,1-1.5,2-2.3,2.9c8.2,5.7,17.6,9.4,27.6,10.4c7.7,0.8,16.5,0.1,21.7-6.4c1.5-1.9-1.1-4.5-2.7-2.7
					c-5.2,6.5-14.5,6.1-21.9,4.9c-8.3-1.4-16-4.7-22.8-9.5c-1.8-1.2-3.8,1.5-2.3,2.9c3,2.8,9.8,3.8,9.9-2.1c0-1.2-0.5-2-0.9-3
					c-0.5-1.2-1-1.4-1.2-3c-0.2-1.4,0.3-1.8,0.2-2.9c-0.1-1.9-0.7-3.4-2.7-3.7C248.6,90,247.6,93.7,250,94.1L250,94.1z"/>
			</g>
		</g>
	</g>
</g>
<g>
	<g>
		<g>
			<g>
				<path d="M139,107.5c3-0.6,5.9-1.5,8.8-2.5c-1.9-2.4-3.8-4.9-5.6-7.3c-2.1,4.4-7.7,11.7-2.7,15.9c4.8,4.1,11.3-2,14.6-5.5
					c-2.6-0.3-5.2-0.7-7.9-1c0.4,1-0.1,2.2-0.4,3.2c-1,2.5,1.1,5.5,3.5,6.2c2.8,0.8,5.2-1,6.2-3.5c1.5-3.7,0.9-7.3-0.6-10.9
					c-1.3-3-5.8-3.1-7.9-1c-1.7,1.8-3.6,3.5-5.9,4.5c0.8-0.2,1.7-0.5,2.5-0.7c-0.2,0-0.5,0-0.7,0c0.8,0.2,1.7,0.5,2.5,0.7
					c-0.1-0.1-0.3-0.2-0.4-0.3c0.8,1,1.5,2,2.3,3c0.3,1.2-0.4,1.8,0.5,0.6c0.5-0.6,0.7-1.5,1.1-2.2c0.6-1.3,1.3-2.7,1.9-4
					c1.7-3.6-1.2-8.9-5.6-7.3c-2.9,1-5.8,1.8-8.8,2.5C130,99.2,132.7,108.8,139,107.5L139,107.5z"/>
			</g>
		</g>
		<g>
			<g>
				<path d="M140.7,125.1c4.5-1.4,8.9-3.2,13.1-5.4c5.7-3,0.7-11.6-5-8.6c-3.4,1.8-7,3.2-10.7,4.4
					C131.9,117.4,134.5,127,140.7,125.1L140.7,125.1z"/>
			</g>
		</g>
		<g>
			<g>
				<path d="M142.7,111.2c-0.9,4.4,0.4,9.2-1.1,13.4c-2.1,6.1,7.5,8.7,9.6,2.7c1.6-4.5,0.1-8.9,1.1-13.4
					C153.7,107.5,144.1,104.9,142.7,111.2L142.7,111.2z"/>
			</g>
		</g>
		<g>
			<g>
				<path d="M143.2,133.1c5.7-3,11-6.7,15.8-11s-2.3-11.4-7.1-7.1c-4.2,3.8-8.8,6.9-13.8,9.5C132.4,127.4,137.5,136.1,143.2,133.1
					L143.2,133.1z"/>
			</g>
		</g>
		<g>
			<g>
				<path d="M155.6,103.6c1.2,3,2,6,2.6,9.2c0.5,2.7,3.7,4.2,6.2,3.5c2.8-0.8,4-3.5,3.5-6.2c-0.6-3.2-1.4-6.2-2.6-9.2
					c-1-2.5-3.4-4.3-6.2-3.5C156.7,98.1,154.6,101.1,155.6,103.6L155.6,103.6z"/>
			</g>
		</g>
		<g>
			<g>
				<path d="M165.7,94.2c1.4,6,2.6,12,3.5,18.1c0.4,3.1,0.8,6.1,1.1,9.2c0.2,2.6,1.2,6.2,0.3,8.6c0.8-1,1.5-2,2.3-3
					c1.3,0,0.9-0.2-1.2-0.6c-1.3-0.4-2.5-0.8-3.8-1.2c-6.2-1.9-8.8,7.7-2.7,9.6c3.9,1.2,8.4,3.5,12.2,1.1c4.2-2.6,3.4-7.5,3-11.7
					c-0.9-11.1-2.7-22.1-5.2-32.9C173.9,85.2,164.2,87.9,165.7,94.2L165.7,94.2z"/>
			</g>
		</g>
	</g>
	<g>
		<g>
			<g>
				<path class="st0" d="M137.6,104.8c3.1-0.6,6-1.5,9-2.5c-0.7-0.9-1.4-1.8-2.1-2.8c-1.2,2.6-2.6,5.1-3.7,7.7
					c-0.7,1.5-1.2,3.1,0.1,4.4c3,2.8,8.7-3.3,10.6-5.3c-1-0.1-2-0.3-2.9-0.4c0.8,1.9,0.6,3.8-0.1,5.7c-0.9,2.2,2.7,3.2,3.6,1
					c1.2-2.9,0.9-5.7-0.3-8.6c-0.5-1.1-2.2-1.2-2.9-0.4c-0.7,0.7-5.4,5.2-5.9,4.9c0.3,0.4,0.6,0.7,0.9,1.1c-0.2-0.7,1.6-3.5,1.9-4.1
					c0.7-1.4,1.3-2.7,2-4.1c0.7-1.3-0.5-3.3-2.1-2.8c-2.9,1-5.9,1.9-9,2.5C134.2,101.7,135.2,105.3,137.6,104.8L137.6,104.8z"/>
			</g>
		</g>
		<g>
			<g>
				<path class="st0" d="M139.3,122.7c4.3-1.4,8.5-3.1,12.5-5.2c2.1-1.1,0.2-4.4-1.9-3.2c-3.7,1.9-7.6,3.5-11.6,4.8
					C136,119.8,137,123.4,139.3,122.7L139.3,122.7z"/>
			</g>
		</g>
		<g>
			<g>
				<path class="st0" d="M145.2,112.2c-1,4.4,0.4,9.1-1.1,13.4c-0.8,2.3,2.8,3.3,3.6,1c1.5-4.4,0.1-8.9,1.1-13.4
					C149.4,110.9,145.7,109.9,145.2,112.2L145.2,112.2z"/>
			</g>
		</g>
		<g>
			<g>
				<path class="st0" d="M141.5,130.6c5.5-2.9,10.6-6.4,15.2-10.5c1.8-1.6-0.9-4.3-2.7-2.7c-4.4,3.9-9.2,7.2-14.4,9.9
					C137.5,128.5,139.3,131.8,141.5,130.6L141.5,130.6z"/>
			</g>
		</g>
		<g>
			<g>
				<path class="st0" d="M158.2,103.1c1.2,3,2,6,2.6,9.2c0.4,2.4,4,1.4,3.6-1c-0.6-3.2-1.4-6.2-2.6-9.2
					C160.9,99.8,157.3,100.8,158.2,103.1L158.2,103.1z"/>
			</g>
		</g>
		<g>
			<g>
				<path class="st0" d="M168.3,93.6c1.7,7.4,3.1,14.9,4.1,22.4c0.4,3.2,0.7,6.4,1,9.6c0.1,1.7,1,3.9-1,4.7
					c-0.9,0.4-4.8-1.5-5.6-1.8c-2.3-0.7-3.3,2.9-1,3.6c2.8,0.9,7,3.3,9.8,1.4s1.7-6.2,1.5-9c-0.9-10.8-2.6-21.5-5.1-32
					C171.4,90.2,167.8,91.2,168.3,93.6L168.3,93.6z"/>
			</g>
		</g>
	</g>
</g>
<g>
	<g>
		<g>
			<g>
				<path d="M316.3,93c5.6-0.7,10.7-2.2,15.7-4.7c5.8-2.9,0.7-11.5-5-8.6c-3.3,1.7-7,2.9-10.7,3.4c-2.7,0.4-5,2-5,5
					C311.3,90.4,313.6,93.3,316.3,93L316.3,93z"/>
			</g>
		</g>
		<g>
			<g>
				<path d="M306.2,108.8c3.4,6.1,11.3,0.9,15.5-1.3c6.1-3.2,13.9-6,18.4-11.4c4.1-4.9-3-12-7.1-7.1c-2.7,3.3-7.1,5-10.8,6.9
					c-2.1,1.1-4.3,2.3-6.4,3.4c-1.3,0.7-3.6,2.5-5.1,2.4c1.4,0.8,2.9,1.7,4.3,2.5c-0.1-0.1-0.1-0.3-0.2-0.4
					C311.8,98.1,303.1,103.1,306.2,108.8L306.2,108.8z"/>
			</g>
		</g>
		<g>
			<g>
				<path d="M321.1,90.8c2,10-6.4,22.1-12.8,29c-4.4,4.7,2.7,11.8,7.1,7.1c9.2-9.8,18.1-24.8,15.4-38.7
					C329.5,81.8,319.9,84.5,321.1,90.8L321.1,90.8z"/>
			</g>
		</g>
		<g>
			<g>
				<path d="M320.8,113.4c10.8,6.1,21.6,12.1,32.6,17.9c5.7,3,10.7-5.6,5-8.6c-10.9-5.8-21.8-11.8-32.6-17.9
					C320.2,101.6,315.2,110.2,320.8,113.4L320.8,113.4z"/>
			</g>
		</g>
	</g>
	<g>
		<g>
			<g>
				<path class="st0" d="M315.8,90.5c5-0.7,9.7-2.1,14.2-4.3c2.2-1.1,0.3-4.3-1.9-3.2c-3.9,1.9-8,3.2-12.3,3.8
					C313.5,87.1,313.5,90.8,315.8,90.5L315.8,90.5z"/>
			</g>
		</g>
		<g>
			<g>
				<path class="st0" d="M308.4,107.9c2,3.7,9-1.2,11.2-2.4c5.8-3,13.5-5.8,17.8-10.9c1.5-1.8-1.1-4.5-2.7-2.7
					c-2.9,3.5-7.5,5.3-11.4,7.4c-1.3,0.7-12.2,5.9-11.7,6.7C310.5,103.9,307.3,105.8,308.4,107.9L308.4,107.9z"/>
			</g>
		</g>
		<g>
			<g>
				<path class="st0" d="M323.6,90.7c2.2,11.2-6.3,24.2-13.6,32c-1.6,1.8,1,4.4,2.7,2.7c8.3-8.9,17.1-22.9,14.6-35.7
					C326.8,87.3,323.1,88.3,323.6,90.7L323.6,90.7z"/>
			</g>
		</g>
		<g>
			<g>
				<path class="st0" d="M321.9,111.1c10.8,6.1,21.6,12.1,32.6,17.9c2.1,1.1,4-2.1,1.9-3.2c-10.9-5.8-21.8-11.8-32.6-17.9
					C321.6,106.7,319.8,109.9,321.9,111.1L321.9,111.1z"/>
			</g>
		</g>
	</g>
</g>
<g>
	<g>
		<g>
			<g>
				<path d="M369.5,116.3c-1.4,7.4-1.4,14.6,0.1,22c1,5.2,9.1,6.2,11.4,1.5c2-3.9,2.5-7.6,1.5-11.9c-1.8-7.8-13.8-4.5-12.1,3.3
					c0.2,0.9,0.2,1.4-0.2,2.2c3.8,0.5,7.6,1,11.4,1.5c-1-5.1-1.1-10.3-0.1-15.4C383,111.8,371,108.4,369.5,116.3L369.5,116.3z"/>
			</g>
		</g>
		<g>
			<g>
				<path d="M379.3,122.8c2.1-0.9,4.3-1.7,6.6-2.3c0.5-0.1,1.1-0.3,1.6-0.4c1,0,1.1-0.4,0.3-1.2c-0.3,0.2-0.4-2.3-0.3,1
					c0.1,2.5-0.1,5.1-0.1,7.6c0,1.6-0.1,3.2-0.1,4.7c0,0.6,0,1.3,0,1.9c-0.4,3.2,2.1,3,7.3-0.3c-5.6-5.7-14.5,3.1-8.8,8.8
					c4.2,4.3,11.8,2.8,13.7-3c0.9-2.8,0.4-6.4,0.5-9.3c0.1-3.7,0.3-7.4,0.2-11c-0.2-5.5-2.4-11-8.4-11.9c-6.1-0.9-13.1,2.2-18.5,4.7
					C365.6,115.3,372,126,379.3,122.8L379.3,122.8z"/>
			</g>
		</g>
		<g>
			<g>
				<path d="M376.5,135.6c3.3-1.3,6.7-2,10.2-2.2c3.4-0.2,6.3-2.7,6.3-6.3c0-3.2-2.9-6.5-6.3-6.3c-4.6,0.3-9.2,1-13.5,2.7
					c-3.1,1.2-5.3,4.2-4.4,7.7C369.6,134.2,373.3,136.8,376.5,135.6L376.5,135.6z"/>
			</g>
		</g>
		<g>
			<g>
				<path d="M374.4,138.2c0,0.4,0,0.8,0.1,1.2c0.3,4.1,3.8,7.1,7.9,6c4.7-1.2,9.1-3.2,12.6-6.5c2.4-2.2,2.4-6.6,0-8.8
					c-2.6-2.4-6.3-2.4-8.8,0c-0.3,0.3-0.5,0.5-0.8,0.7c0.5-0.4,0.5-0.4-0.1,0c-0.7,0.4-1.4,0.8-2.1,1.2c-0.7,0.3-0.8,0.4-0.2,0.2
					c-0.4,0.2-0.8,0.3-1.2,0.5c-0.9,0.3-1.7,0.5-2.6,0.8c2.6,2,5.3,4,7.9,6c0-0.4,0-0.8-0.1-1.2c-0.2-3.3-2.7-6.4-6.3-6.3
					C377.5,132.1,374.2,134.7,374.4,138.2L374.4,138.2z"/>
			</g>
		</g>
		<g>
			<g>
				<path d="M405.5,107.8c8.1-1.3,16.2-2.5,24.4-3.8c7.9-1.2,4.6-13.3-3.3-12.1c-8.1,1.3-16.2,2.5-24.4,3.8
					C394.3,97,397.7,109,405.5,107.8L405.5,107.8z"/>
			</g>
		</g>
		<g>
			<g>
				<path d="M407,111.9c3.1,3.1,7.2,2.3,11,1.3c3.6-1,7.2-2.2,10.6-3.6c3.1-1.3,5.3-4.2,4.4-7.7c-0.8-3-4.5-5.6-7.7-4.4
					c-2.3,0.9-4.6,1.8-7,2.5c-1,0.3-2.1,0.6-3.1,0.9c-0.7,0.2-1.4,0.4-2.1,0.6c-1.5,0.3-1.4,0.4,0.3,0.2c0.9,0.5,1.8,1.1,2.8,1.6
					c-0.1-0.1-0.2-0.2-0.3-0.3C410.2,97.3,401.3,106.1,407,111.9L407,111.9z"/>
			</g>
		</g>
		<g>
			<g>
				<path d="M415,90.4c-0.9,4-1.1,7.8-0.9,11.9c0.2,3.9,0.8,8.2-0.8,12c-3.2,7.3,7.6,13.7,10.8,6.3c1.9-4.3,2.7-8.4,2.7-13.1
					c0-4.6-0.8-9.2,0.3-13.7C428.9,85.9,416.9,82.6,415,90.4L415,90.4z"/>
			</g>
		</g>
		<g>
			<g>
				<path d="M399.1,128.5c8.3-1.3,16.5-2.7,24.8-4c3.8-0.6,7.6-1.2,11.4-1.9c3.4-0.6,7.4-0.7,10.4-2.7c6.6-4.5,0.4-15.3-6.3-10.8
					c-2.2,1.5-6.7,1.3-9.3,1.7c-3.8,0.6-7.6,1.2-11.4,1.9c-7.6,1.2-15.2,2.5-22.9,3.7C387.9,117.7,391.2,129.8,399.1,128.5
					L399.1,128.5z"/>
			</g>
		</g>
		<g>
			<g>
				<path d="M409.5,131c-0.9,9.6-3.2,18.9-6.6,27.9c4.1,0.6,8.2,1.1,12.3,1.7c0.5-6.9,1-13.9,2.7-20.7c0.6-2.4,0.8-3.9,3.1-4.9
					c3.4-1.5,3.9-1.9,4.9,1.5c3.9,12.7,5.5,25.8,4.9,39.1c3.1-1.8,6.3-3.6,9.4-5.4c-2.7-1.3-5.6-2.7-7.4-5.3
					c-4.6-6.5-15.4-0.3-10.8,6.3c3.1,4.4,7,7.5,11.9,9.7c4.3,2,9.2-0.4,9.4-5.4c0.4-10-0.3-19.9-2.2-29.7
					c-1.5-7.6-2.8-20.3-11.2-23.6c-7.5-2.9-18.6,1.6-22.2,8.7c-4.3,8.7-4.3,20.1-5,29.6c-0.5,7.5,10,7.8,12.3,1.7
					c3.8-10.1,6.1-20.5,7-31.3C422.7,123,410.2,123.1,409.5,131L409.5,131z"/>
			</g>
		</g>
		<g>
			<g>
				<path d="M412.2,146.2c2.8-0.8,5.7-1.5,8.6-2c1.7-0.3,6.1-1.4,7.7-0.5c7.1,3.9,13.4-6.9,6.3-10.8c-7.3-4-18.4-1-25.9,1.2
					C401.2,136.4,404.5,148.5,412.2,146.2L412.2,146.2z"/>
			</g>
		</g>
		<g>
			<g>
				<path d="M417.6,140.9c-2.9,1.1-4.3,2.4-5.5,5.3c-1.4,3.6,2.2,8.3,6,7.9c6.2-0.6,12.4-1.4,18.6-2.2c3.3-0.4,6.3-2.6,6.3-6.3
					c0-3-2.9-6.7-6.3-6.3c-6.2,0.8-12.4,1.6-18.6,2.2c2,2.6,4,5.3,6,7.9c0.1-0.2,0.2-0.4,0.2-0.6c-1.5,1.5-2.9,2.9-4.4,4.4
					c0.3-0.1,0.6-0.2,0.9-0.3C428.4,150.2,425.2,138.1,417.6,140.9L417.6,140.9z"/>
			</g>
		</g>
	</g>
	<g>
		<g>
			<g>
				<path class="st0" d="M371.7,118c-1.3,6.7-1.3,13.3,0.1,20c0.4,2.1,3.6,2.5,4.6,0.6c1.5-3,1.9-5.7,1.1-9
					c-0.7-3.1-5.5-1.8-4.8,1.3c0.4,1.9,0.3,3.4-0.6,5.1c1.5,0.2,3,0.4,4.6,0.6c-1.1-5.8-1.2-11.6-0.1-17.4
					C377.2,116.2,372.3,114.8,371.7,118L371.7,118z"/>
			</g>
		</g>
		<g>
			<g>
				<path class="st0" d="M376,120.2c2.4-1.1,4.9-2,7.5-2.6c1.2-0.3,2.8-0.9,4-0.7c1.4-0.7,2.1-0.3,2,1.1c0.3,0.8,0.4,1.7,0.3,2.6
					c0.1,2.5-0.1,5.1-0.1,7.6c0,2.4-1,7.1,0.8,8.9c-2.3-2.3-5.8,1.2-3.5,3.5s6.1,1.7,7.4-1.4c0.9-2.2,0.3-5.9,0.3-8.3
					c0.1-3.7,0.3-7.4,0.2-11c-0.1-3.8-1.3-7.9-5.7-8.3c-5.1-0.5-11.1,2.2-15.7,4.3C370.6,117.2,373.1,121.5,376,120.2L376,120.2z"/>
			</g>
		</g>
		<g>
			<g>
				<path class="st0" d="M374.1,132.6c3.6-1.4,7.3-2.1,11.2-2.4c3.2-0.2,3.2-5.2,0-5c-4.3,0.3-8.5,1-12.5,2.5
					C369.8,128.9,371.1,133.8,374.1,132.6L374.1,132.6z"/>
			</g>
		</g>
		<g>
			<g>
				<path class="st0" d="M376.8,138.9c0,0.4,0,0.8,0.1,1.2c0.1,1.6,1.5,2.8,3.2,2.4c4-1,7.9-2.7,11-5.6c2.4-2.2-1.2-5.7-3.5-3.5
					c-2.4,2.3-5.6,3.5-8.8,4.3c1.1,0.8,2.1,1.6,3.2,2.4c0-0.4,0-0.8-0.1-1.2C381.6,135.7,376.6,135.7,376.8,138.9L376.8,138.9z"/>
			</g>
		</g>
		<g>
			<g>
				<path class="st0" d="M403.2,104.8c8.1-1.3,16.2-2.5,24.4-3.8c3.2-0.5,1.8-5.3-1.3-4.8c-8.1,1.3-16.2,2.5-24.4,3.8
					C398.7,100.5,400,105.3,403.2,104.8L403.2,104.8z"/>
			</g>
		</g>
		<g>
			<g>
				<path class="st0" d="M408.3,109.9c2,2,5,0.9,7.4,0.3c3.6-1,7.2-2.2,10.6-3.6c2.9-1.2,1.7-6-1.3-4.8c-2.3,0.9-4.6,1.8-7,2.5
					c-1,0.3-2.1,0.6-3.1,0.9c-0.5,0.1-3.5,0.7-3.1,1.1C409.5,104,406,107.6,408.3,109.9L408.3,109.9z"/>
			</g>
		</g>
		<g>
			<g>
				<path class="st0" d="M417.3,92.1c-1.9,8.1,1.2,17-2.1,24.7c-1.3,2.9,3,5.5,4.3,2.5c3.7-8.5,0.5-17.2,2.6-25.9
					C422.9,90.3,418,89,417.3,92.1L417.3,92.1z"/>
			</g>
		</g>
		<g>
			<g>
				<path class="st0" d="M396.8,125.5c8.3-1.3,16.5-2.7,24.8-4c3.8-0.6,7.6-1.2,11.4-1.9c3-0.5,6.9-0.5,9.5-2.3s0.1-6.1-2.5-4.3
					c-2.6,1.7-7.2,1.6-10.2,2.1c-3.8,0.6-7.6,1.2-11.4,1.9c-7.6,1.2-15.2,2.5-22.9,3.7C392.3,121.2,393.6,126.1,396.8,125.5
					L396.8,125.5z"/>
			</g>
		</g>
		<g>
			<g>
				<path class="st0" d="M411.9,131.7c-0.9,10-3.2,19.6-6.7,28.9c1.6,0.2,3.3,0.4,4.9,0.7c0.5-7.3,1-14.6,2.8-21.7
					c0.9-3.6,2-6.2,5.7-7.5c2.1-0.7,5.9-1.8,7.7-0.3c1.1,0.9,1.4,3.1,1.8,4.4c3.9,13,5.7,26.5,5.1,40.1c1.3-0.7,2.5-1.4,3.8-2.2
					c-3.4-1.6-6.5-3.5-8.7-6.6c-1.8-2.6-6.2-0.1-4.3,2.5c2.7,3.9,6.3,6.4,10.5,8.4c1.7,0.8,3.7-0.2,3.8-2.2
					c0.4-9.6-0.3-19.2-2.1-28.7c-1-5.1-2.1-10.5-4-15.4c-1-2.5-2.4-4.7-5.1-5.7c-5.8-2.2-14.9,1.7-17.5,7.2
					c-3.9,8.2-3.9,18.9-4.5,27.7c-0.2,3,4,3.1,4.9,0.7c3.7-9.8,6-19.9,6.9-30.3C417.2,128.5,412.2,128.5,411.9,131.7L411.9,131.7z"
					/>
			</g>
		</g>
		<g>
			<g>
				<path class="st0" d="M409.9,143.3c2.8-0.8,5.7-1.5,8.6-2c2.9-0.4,7.9-1.6,10.6-0.1c2.8,1.6,5.3-2.8,2.5-4.3
					c-3.3-1.8-7.1-1.3-10.7-0.9c-4.2,0.5-8.3,1.3-12.3,2.4C405.5,139.4,406.8,144.2,409.9,143.3L409.9,143.3z"/>
			</g>
		</g>
		<g>
			<g>
				<path class="st0" d="M417.2,145.1c-1.6,0.6-2.2,1.1-2.9,2.7c-0.6,1.4,0.9,3.3,2.4,3.2c6.2-0.6,12.4-1.4,18.6-2.2
					c3.1-0.4,3.2-5.4,0-5c-6.2,0.8-12.4,1.6-18.6,2.2c0.8,1.1,1.6,2.1,2.4,3.2c0.1-0.2,0.2-0.4,0.2-0.6c-0.6,0.6-1.2,1.2-1.7,1.7
					c0.3-0.1,0.6-0.2,0.9-0.3C421.6,148.9,420.3,144,417.2,145.1L417.2,145.1z"/>
			</g>
		</g>
	</g>
</g>
<g>
	<g>
		<g>
			<g>
				<path d="M453,153c0,2.4,0,4.9-0.1,7.3c3.3-0.4,6.5-0.9,9.8-1.3c-0.1-0.4-0.2-0.8-0.3-1.2c-0.7-2.5-3.6-4.3-6.2-3.5
					c-2.6,0.8-4.2,3.4-3.5,6.2c0.1,0.4,0.2,0.8,0.3,1.2c0.6,2.4,3.1,3.9,5.5,3.6c2.5-0.3,4.3-2.4,4.3-4.9c0.1-2.4,0.1-4.9,0.1-7.3
					c0-2.6-2.3-5.1-5-5C455.3,148.1,453,150.2,453,153L453,153z"/>
			</g>
		</g>
		<g>
			<g>
				<path d="M459.6,156.8c0.9-0.4,1.9-0.7,2.8-1c0.4-0.1,2-0.4,1.5-0.5c-0.7-0.4-1.5-0.9-2.2-1.3c0.1,0.1,0.3,0.2,0.4,0.3
					c-0.4-0.7-0.9-1.5-1.3-2.2c-0.3-1-0.2,1.2-0.3,1.6c-0.1,1.2-0.3,2.3-0.4,3.5c-0.3,2.1-0.5,4.3-0.8,6.4c2.5-1.4,5-2.9,7.5-4.3
					c0-0.1-0.1-0.1-0.1-0.2c-4.3-4.8-11.4,2.3-7.1,7.1c0.6,0.7,1.4,1.2,2.1,1.8c3.5,2.4,7.1-0.9,7.5-4.3c0.3-2.6,0.7-5.3,1-7.9
					c0.3-2.3,0.9-4.6-0.1-6.8c-2.4-5.2-9.1-3.5-13.3-1.8c-2.5,1-4.3,3.3-3.5,6.2C454.1,155.7,457.1,157.8,459.6,156.8L459.6,156.8z"
					/>
			</g>
		</g>
		<g>
			<g>
				<path d="M460.8,162.4c-1.3,0.7-0.5,0.2-0.2,0.1c0.9-0.3-1.2,0,0,0c0.3,0,1.2,0.2,0.4,0c-0.9-0.2,0.4,0.1,0.6,0.2
					c2.5,0.7,5.6-0.9,6.2-3.5c0.6-2.7-0.8-5.4-3.5-6.2c-2.9-0.9-5.9-0.6-8.5,0.8c-2.3,1.2-3.2,4.7-1.8,6.8
					C455.5,163,458.3,163.6,460.8,162.4L460.8,162.4z"/>
			</g>
		</g>
		<g>
			<g>
				<path d="M459.5,167.9c2.3-0.4,4.5-1.1,6.6-2.2c2.3-1.2,3.2-4.7,1.8-6.8c-1.5-2.4-4.3-3.1-6.8-1.8c-0.2,0.1-0.4,0.2-0.6,0.3
					c-0.5,0.2-0.4,0.2,0.2-0.1c-0.2,0.2-0.8,0.3-1.1,0.4c-0.9,0.3-1.8,0.5-2.7,0.6c-2.6,0.4-4.3,3.8-3.5,6.2
					C454.3,167.3,456.8,168.4,459.5,167.9L459.5,167.9z"/>
			</g>
		</g>
		<g>
			<g>
				<path d="M473.1,153.8c2.3,0.7,4.8,0.2,7.1,0c2.5-0.2,5-0.4,7.5-0.6c2.7-0.2,5-2.1,5-5c0-2.5-2.3-5.2-5-5
					c-2.2,0.2-4.3,0.3-6.5,0.5c-1.4,0.1-4.3,0.8-5.4,0.4C469.6,142.3,467,151.9,473.1,153.8L473.1,153.8z"/>
			</g>
		</g>
		<g>
			<g>
				<path d="M479.1,142.1c-0.9,1.9-1.7,3.9-2.2,6c-0.2,0.8-0.3,1.7-0.5,2.6c-0.1,0.3-0.1,0.6-0.2,0.9c0.2-0.7,0.8-1.2,1.6-1.5
					c-2.5,1-4.3,3.4-3.5,6.2c0.7,2.4,3.6,4.5,6.2,3.5c2.8-1.1,4.8-2.9,5.5-5.9c0.5-2.2,0.8-4.5,1.7-6.6c1.1-2.5,0.7-5.4-1.8-6.8
					C483.8,139.1,480.2,139.6,479.1,142.1L479.1,142.1z"/>
			</g>
		</g>
		<g>
			<g>
				<path d="M475.3,160.4c3.2-0.4,6.4-0.7,9.7-0.8c2.7-0.1,5-2.2,5-5c0-2.6-2.3-5.1-5-5c-3.2,0.1-6.5,0.4-9.7,0.8
					c-2.7,0.3-5,2.1-5,5C470.3,157.8,472.7,160.7,475.3,160.4L475.3,160.4z"/>
			</g>
		</g>
		<g>
			<g>
				<path d="M469.7,167.2c2.3,0.3,4.6-0.4,6.9-0.8c2.9-0.5,5.9-0.6,8.9-0.6c4.5,0,9.3,0.9,11-4.3c2-6.1-7.6-8.7-9.6-2.7
					c-0.1,0.2-0.1,0.3-0.2,0.5c0.8-1,1.5-2,2.3-3c1.3-0.7-3.6-0.5-4.3-0.5c-1.6,0-3.2,0.1-4.8,0.2c-3.3,0.3-7,1.6-10.2,1.2
					C463.3,156.4,463.4,166.4,469.7,167.2L469.7,167.2z"/>
			</g>
		</g>
		<g>
			<g>
				<path d="M482.1,156.4c-1.4,3.7-2.1,7.5-2.6,11.5c-0.2,1.8-0.4,3.6-0.6,5.4c-0.1,1.1-0.2,2.1-0.4,3.2c-0.6,2.3-0.4,2.4,0.5,0.5
					c1.2-0.5,2.4-1,3.5-1.5c1,0.5,0.8,0.3-0.7-0.5c-0.8-0.6-1.5-1.3-2.2-2.1c-4.4-4.7-11.5,2.4-7.1,7.1c3.6,3.8,12.4,9.4,15.2,1.5
					c1-2.9,0.9-6.7,1.3-9.7c0.5-4.4,1.2-8.5,2.7-12.6C494,153,484.4,150.4,482.1,156.4L482.1,156.4z"/>
			</g>
		</g>
		<g>
			<g>
				<path d="M469.9,172.8c2.6,0.9,4,1.4,6.4,2.7c2.3,1.2,5.5,0.7,6.8-1.8c1.2-2.3,0.7-5.5-1.8-6.8c-2.8-1.5-5.8-2.7-8.8-3.7
					c-2.5-0.8-5.6,0.9-6.2,3.5C465.8,169.4,467.2,171.9,469.9,172.8L469.9,172.8z"/>
			</g>
		</g>
	</g>
	<g>
		<g>
			<g>
				<path class="st0" d="M457.5,153.3c0,2.4,0,4.9-0.1,7.3c0.8-0.1,1.6-0.2,2.5-0.3c-0.1-0.4-0.2-0.8-0.3-1.2
					c-0.4-1.6-2.8-0.9-2.4,0.7c0.1,0.4,0.2,0.8,0.3,1.2c0.4,1.4,2.4,1.1,2.5-0.3c0.1-2.4,0.1-4.9,0.1-7.3
					C459.9,151.7,457.4,151.7,457.5,153.3L457.5,153.3z"/>
			</g>
		</g>
		<g>
			<g>
				<path class="st0" d="M459.5,154.2c1.2-0.5,2.4-0.9,3.7-1.2c0.6-0.1,2.2,0.1,1.5-0.8c0.2,0.3-0.3,2.1-0.3,2.5
					c-0.4,3.1-0.8,6.2-1.2,9.4c0.9-0.5,1.9-1.1,2.8-1.6c-0.3-0.2-0.5-0.5-0.8-0.7c-1.6-1.8-4.3,0.9-2.7,2.7c0.5,0.6,0.9,0.8,1.5,1.3
					c1.3,0.9,2.7-0.3,2.8-1.6c0.3-2.6,0.7-5.3,1-7.9c0.2-1.7,1-4,0.2-5.6c-1.6-3.2-7.3-1-9.6,0C456.3,151.4,457.2,155.1,459.5,154.2
					L459.5,154.2z"/>
			</g>
		</g>
		<g>
			<g>
				<path class="st0" d="M459.9,160c1-0.5,2.2-0.4,3.2-0.1c2.3,0.7,3.3-2.9,1-3.6c-2-0.6-4.2-0.5-6.1,0.5
					C455.8,157.9,457.7,161.1,459.9,160L459.9,160z"/>
			</g>
		</g>
		<g>
			<g>
				<path class="st0" d="M459.4,165.3c2.1-0.3,4-1,5.9-1.9c2.1-1.1,0.3-4.3-1.9-3.2c-1.6,0.8-3.3,1.3-5,1.5c-1,0.2-1.6,1.4-1.3,2.3
					C457.4,165,458.4,165.4,459.4,165.3L459.4,165.3z"/>
			</g>
		</g>
		<g>
			<g>
				<path class="st0" d="M474.7,151.1c2,0.6,4.3,0,6.3-0.1c2.5-0.2,5-0.4,7.5-0.6c2.4-0.2,2.4-3.9,0-3.8c-2.2,0.2-4.3,0.3-6.5,0.5
					c-1.8,0.1-4.6,0.8-6.3,0.3C473.3,146.8,472.4,150.4,474.7,151.1L474.7,151.1z"/>
			</g>
		</g>
		<g>
			<g>
				<path class="st0" d="M482.5,144c-0.7,1.7-1.4,3.4-1.8,5.2c-0.2,0.9-0.2,3.7-1.3,4.1c-2.2,0.8-1.3,4.5,1,3.6
					c1.8-0.7,2.9-1.9,3.3-3.7c0.6-2.5,1-4.9,2-7.4C486.7,143.7,483.4,141.8,482.5,144L482.5,144z"/>
			</g>
		</g>
		<g>
			<g>
				<path class="st0" d="M476,157.6c3.2-0.4,6.4-0.7,9.7-0.8c2.4-0.1,2.4-3.8,0-3.8c-3.2,0.1-6.5,0.4-9.7,0.8
					C473.7,154.2,473.6,157.9,476,157.6L476,157.6z"/>
			</g>
		</g>
		<g>
			<g>
				<path class="st0" d="M470.4,164.4c2.1,0.2,4-0.4,6-0.7c3.2-0.5,6.5-0.7,9.7-0.7c2.7,0,6.9,1.3,8-2c0.8-2.3-2.9-3.3-3.6-1
					c0.5-1.5-18.6,0.8-20.1,0.6C468,160.4,468,164.1,470.4,164.4L470.4,164.4z"/>
			</g>
		</g>
		<g>
			<g>
				<path class="st0" d="M485.8,157.6c-1.6,4.2-2.3,8.5-2.8,12.9c-0.2,2.1-0.4,4.2-0.7,6.3c-0.1,0.9-0.2,1.8-0.4,2.7
					c0.5-0.5,0.4-0.9-0.3-1.1c-1.3-0.9-2.4-1.8-3.5-3c-1.7-1.8-4.3,0.9-2.7,2.7c2,2.1,7.8,7.5,9.9,2.9c1.1-2.4,0.9-6.3,1.2-8.9
					c0.5-4.6,1.2-9.1,2.9-13.5C490.3,156.3,486.7,155.4,485.8,157.6L485.8,157.6z"/>
			</g>
		</g>
		<g>
			<g>
				<path class="st0" d="M471.4,170.1c2.5,0.8,4.9,1.8,7.2,3c2.1,1.1,4-2.1,1.9-3.2c-2.6-1.4-5.3-2.5-8.1-3.4
					C470.1,165.8,469.1,169.4,471.4,170.1L471.4,170.1z"/>
			</g>
		</g>
	</g>
</g>
<g>
	<polygon class="st1" points="13,96.1 13.8,96.1 13.8,96.1 	"/>
	<g>
		<g>
			<g>
				<g>
					<path d="M15.6,40.7c12.9-2.3,25.3-6.7,36.8-12.9c8.5-4.6,0.9-17.5-7.6-13c-10.4,5.6-21.5,9.4-33.2,11.4
						C2.1,27.9,6.1,42.4,15.6,40.7L15.6,40.7z"/>
				</g>
			</g>
			<g>
				<g>
					<path d="M13,43.2c0,7.3,0,14.7,0,22c0,9.7,15,9.7,15,0c0-7.3,0-14.7,0-22C28,33.6,13,33.6,13,43.2L13,43.2z"/>
				</g>
			</g>
			<g>
				<g>
					<path d="M25.3,36.1c1.4,12,2.7,24,3.9,36.1c0.6,5.9,1.1,11.7,1.6,17.6c0.2,2.9,0.5,5.9,0.7,8.8c0.2,2.4,1.2,6,0.4,8.2
						c1.1-1.5,2.3-3,3.4-4.5c-0.3,0.2-0.6,0.4-0.9,0.6c-3.3,2.4-4.8,6.5-2.7,10.3c1.9,3.3,7,5,10.3,2.7c6.2-4.4,4.9-10.5,4.4-17.3
						s-1.1-13.7-1.7-20.5c-1.3-14-2.8-28-4.4-42c-0.5-4-3.1-7.5-7.5-7.5C29.1,28.6,24.8,32,25.3,36.1L25.3,36.1z"/>
				</g>
			</g>
			<g>
				<g>
					<path d="M23.6,57.1c4.6-1,9.1-2.8,13.2-5.3c3.4-2,4.9-6.8,2.7-10.3c-2.2-3.4-6.7-4.9-10.3-2.7c-0.9,0.5-1.8,1-2.7,1.5
						c-0.5,0.2-0.9,0.4-1.4,0.7c0.5-0.2,0.5-0.2,0,0c-1.8,0.7-3.7,1.2-5.6,1.6c-3.8,0.8-6.4,5.5-5.2,9.2
						C15.7,55.9,19.5,58,23.6,57.1L23.6,57.1z"/>
				</g>
			</g>
			<g>
				<g>
					<path d="M29.3,66.2c0.3-0.3,0.7-0.6,1-0.9c-0.6,0.5-0.6,0.5,0.1,0c0.7-0.4,1.3-0.8,2.1-1.2c0.3-0.2,0.6-0.3,0.9-0.5
						c-0.7,0.3-0.7,0.3,0.1,0c0.9-0.3,1.7-0.6,2.6-0.8c3.8-0.9,6.5-5.4,5.2-9.2c-1.3-4-5.1-6.2-9.2-5.2c-5.1,1.3-9.6,3.8-13.5,7.2
						c-2.9,2.6-2.9,8,0,10.6C21.8,69.1,26.1,69,29.3,66.2L29.3,66.2z"/>
				</g>
			</g>
			<g>
				<g>
					<path d="M22,95.2c7.9-6.1,15.1-13.1,21.4-20.8c2.6-3.1,3.1-7.5,0-10.6c-2.6-2.6-8-3.1-10.6,0c-6.3,7.7-13.5,14.7-21.4,20.8
						c-3.2,2.5-2.6,8,0,10.6C14.6,98.3,18.8,97.6,22,95.2L22,95.2z"/>
				</g>
			</g>
			<g>
				<g>
					<path d="M51.7,28.7c2.6,0.7,0.7,0.6,0.5-0.7c0-1.3,0-2.7,0-4c-0.5,2.2-3.1,4-5,5.1c-8.4,5.1-1.1,16.9,7.6,13
						c7.5-3.4,15.1-6.8,22.6-10.2c3.7-1.7,4.6-7,2.7-10.3c-2.2-3.8-6.6-4.4-10.3-2.7c-7.5,3.4-15.1,6.8-22.6,10.2
						c2.5,4.3,5,8.6,7.6,13c5.1-3.1,10.6-8,11.9-14.1c1.5-7.4-4.7-12-11-13.7C46.4,11.8,42.4,26.2,51.7,28.7L51.7,28.7z"/>
				</g>
			</g>
			<g>
				<g>
					<path d="M51.6,43.6c0.8,4.4,1.5,8.8,2.3,13.2c0.7,4,5.6,6.2,9.2,5.2c4.2-1.2,5.9-5.2,5.2-9.2c-0.8-4.4-1.5-8.8-2.3-13.2
						c-0.7-4-5.6-6.2-9.2-5.2C52.6,35.5,50.9,39.6,51.6,43.6L51.6,43.6z"/>
				</g>
			</g>
			<g>
				<g>
					<path d="M61.3,40.5c2.6,3.7-1.7,8.1-3.9,11c-2.5,3.2-0.5,8.4,2.7,10.3c3.9,2.3,7.8,0.5,10.3-2.7c5.7-7.4,10-17.5,3.9-26.1
						c-2.3-3.3-6.5-4.9-10.3-2.7C60.8,32.2,59,37.2,61.3,40.5L61.3,40.5z"/>
				</g>
			</g>
			<g>
				<g>
					<path d="M44.5,76C62,66.7,80.3,59.2,99.3,53.4c9.2-2.8,5.3-17.3-4-14.5C75.1,45,55.6,53.1,36.9,63C28.4,67.5,36,80.5,44.5,76
						L44.5,76z"/>
				</g>
			</g>
			<g>
				<g>
					<path d="M53.7,76.8c0,9.3,0,18.6,0,27.9c4.9-0.7,9.8-1.3,14.7-2c-0.1-0.4-0.2-0.8-0.3-1.2c-0.1-9.6-15.1-9.7-15,0
						c0,1.9,0.2,3.4,0.9,5.2c2.8,7.6,14.7,6.9,14.7-2c0-9.3,0-18.6,0-27.9C68.7,67.2,53.7,67.2,53.7,76.8L53.7,76.8z"/>
				</g>
			</g>
			<g>
				<g>
					<path d="M60.9,83.8c3.3-1.9,6.7-3.4,10.6-3.9c-1.3,0-2.7,0-4,0c-2.6-3.5-3.6-3.7-2.8-0.7c0.1,1.3,0.2,2.6,0.3,3.8
						c0.1,1.9,0.2,3.8,0.3,5.8c0.2,4.5,0.1,9-0.1,13.4c-0.4,9.7,14.6,9.6,15,0c0.3-5.4,0.3-10.9,0-16.3c-0.3-4.8,0-10.9-2.1-15.3
						c-4.8-9.9-17.8-3.7-24.7,0.3C45,75.7,52.5,88.6,60.9,83.8L60.9,83.8z"/>
				</g>
			</g>
			<g>
				<g>
					<path d="M59.7,97.3c3.6-1.1,6.8-1.8,10-2c3.9-0.3,7.7-3.2,7.5-7.5C77,84,73.9,80,69.7,80.3c-4.8,0.3-9.5,1.1-14,2.6
						c-3.7,1.2-6.5,5.3-5.2,9.2C51.7,95.8,55.7,98.6,59.7,97.3L59.7,97.3z"/>
				</g>
			</g>
			<g>
				<g>
					<path d="M66.3,111.6c6.4-4,10.9-9.8,13.4-16.9c1.3-3.7-1.5-8.4-5.2-9.2c-4.2-1-7.8,1.3-9.2,5.2c-0.1,0.3-0.4,1.1-0.1,0.3
						c-0.3,0.6-0.6,1.2-0.9,1.7c-0.3,0.4-0.5,0.9-0.8,1.3c-0.1,0.2-1.1,1.4-0.4,0.7c-0.7,0.8-1.4,1.6-2.1,2.3
						c-0.1,0.1-1.5,1.3-1,0.9c0.4-0.3-1.2,0.7-1.2,0.7c-3.4,2.2-4.8,6.7-2.7,10.3C58,112.4,62.8,113.8,66.3,111.6L66.3,111.6z"/>
				</g>
			</g>
			<g>
				<g>
					<path d="M75.5,35.1c2.6,2.3,3.1,6.1,4.1,9.4c1.3,4.3,2.5,8.6,3.7,12.9c2.2,7.8,4.3,15.6,6.4,23.3c4.2,15,9.1,30.1,18.1,43
						c3.4,4.9,12.2,5,13.7-1.8c2.6-11.4,3.4-23,2.1-34.7c-0.4-4-3.1-7.5-7.5-7.5c-3.7,0-7.9,3.4-7.5,7.5c1.1,10.3,0.7,20.5-1.6,30.7
						c4.6-0.6,9.1-1.2,13.7-1.8c-9.4-13.4-13.7-28.8-17.9-44.4c-2.3-8.6-4.7-17.2-7.2-25.7C93.5,38.6,92,29.9,86,24.5
						C79,18.1,68.3,28.7,75.5,35.1L75.5,35.1z"/>
				</g>
			</g>
			<g>
				<g>
					<path d="M105.1,53.2c-3.5,7.8-6.9,15.7-10.4,23.5c-1.6,3.6-3.2,7.2-4.8,10.9c-0.8,1.8-1.6,3.6-2.4,5.4
						c-0.5,1.2-1.1,2.4-1.6,3.6c-0.8,1.4-0.6,1.3,0.7-0.2c-7.9,5.4-0.4,18.4,7.6,13c3.4-2.3,4.7-5.1,6.3-8.8c2-4.5,4-9.1,6-13.6
						c3.9-8.7,7.7-17.5,11.6-26.2c1.6-3.7,1.1-8-2.7-10.3C112.2,48.6,106.8,49.5,105.1,53.2L105.1,53.2z"/>
				</g>
			</g>
			<g>
				<g>
					<path d="M92.9,33.3c0.9,0.5,1.8,1,2.6,1.5c0.5,0.3,0.9,0.6,1.4,1c-0.8-0.6-0.1,0,0.3,0.3c0.8,0.7,1.5,1.4,2.1,2.1
						c0.3,0.3,0.6,0.7,0.9,1c-1-1.1,0.3,0.4,0.4,0.6c2.2,3.2,6.7,5,10.3,2.7c3.2-2.1,5.1-6.8,2.7-10.3c-3.5-5-7.8-9.1-13.1-11.9
						c-3.5-1.8-8.3-1-10.3,2.7C88.4,26.5,89.2,31.3,92.9,33.3L92.9,33.3z"/>
				</g>
			</g>
		</g>
		<g>
			<g>
				<g>
					<path class="st2" d="M14.3,37.1c12.5-2.2,24.4-6.4,35.6-12.4c2.8-1.5,0.3-5.8-2.5-4.3C36.6,26.2,25.1,30.2,13,32.3
						C9.8,32.8,11.2,37.6,14.3,37.1L14.3,37.1z"/>
				</g>
			</g>
			<g>
				<g>
					<path class="st2" d="M17.1,44.7c0,7.3,0,14.7,0,22c0,3.2,5,3.2,5,0c0-7.3,0-14.7,0-22C22.1,41.5,17.1,41.5,17.1,44.7L17.1,44.7
						z"/>
				</g>
			</g>
			<g>
				<g>
					<path class="st2" d="M29.5,37.5c1.4,12,2.7,24,3.9,36.1c0.6,5.9,1.1,11.7,1.6,17.6c0.2,2.9,0.5,5.9,0.7,8.8
						c0.1,1.3,1.4,8,0.5,8.6c-2.6,1.9-0.1,6.2,2.5,4.3c4.1-2.9,2.3-8.6,1.9-13c-0.5-6.8-1.1-13.7-1.7-20.5c-1.3-14-2.8-28-4.4-42
						C34.1,34.4,29.1,34.3,29.5,37.5L29.5,37.5z"/>
				</g>
			</g>
			<g>
				<g>
					<path class="st2" d="M21.5,53.8c4.2-0.9,8.3-2.5,12-4.8c2.8-1.7,0.2-6-2.5-4.3c-3.4,2-7,3.4-10.8,4.3
						C17,49.7,18.3,54.5,21.5,53.8L21.5,53.8z"/>
				</g>
			</g>
			<g>
				<g>
					<path class="st2" d="M24.9,64.2c2.6-2.3,5.7-3.8,9.1-4.7c3.1-0.8,1.8-5.6-1.3-4.8c-4.2,1-8,3.1-11.3,5.9
						C19,62.8,22.5,66.3,24.9,64.2L24.9,64.2z"/>
				</g>
			</g>
			<g>
				<g>
					<path class="st2" d="M17.7,93.1C25.6,87,32.8,80,39.1,72.3c2-2.5-1.5-6-3.5-3.5c-6.3,7.7-13.5,14.7-21.4,20.8
						C11.6,91.5,15.2,95,17.7,93.1L17.7,93.1z"/>
				</g>
			</g>
			<g>
				<g>
					<path class="st2" d="M53.1,25.1c3,0.8,4.3,2.3,2,5.1c-1.5,1.8-3.3,3.2-5.3,4.5c-2.8,1.7-0.4,5.6,2.5,4.3
						c7.5-3.4,15.1-6.8,22.6-10.2c2.9-1.3,0.4-5.6-2.5-4.3c-7.5,3.4-15.1,6.8-22.6,10.2c0.8,1.4,1.7,2.9,2.5,4.3
						c3.8-2.3,9-6.3,9.6-11.1c0.6-4.5-3.9-6.6-7.5-7.6C51.3,19.4,50,24.2,53.1,25.1L53.1,25.1z"/>
				</g>
			</g>
			<g>
				<g>
					<path class="st2" d="M55.6,44.3c0.8,4.4,1.5,8.8,2.3,13.2c0.5,3.2,5.4,1.8,4.8-1.3c-0.8-4.4-1.5-8.8-2.3-13.2
						C59.8,39.8,55,41.2,55.6,44.3L55.6,44.3z"/>
				</g>
			</g>
			<g>
				<g>
					<path class="st2" d="M64.8,40.1c3.9,5.6-0.4,11.5-3.9,16c-2,2.5,2.4,5,4.3,2.5c4.6-6,8.9-13.9,3.9-21.1
						C67.3,34.9,63,37.4,64.8,40.1L64.8,40.1z"/>
				</g>
			</g>
			<g>
				<g>
					<path class="st2" d="M41.2,73.4c17.9-9.5,36.6-17.2,56-23.1c3.1-0.9,1.8-5.8-1.3-4.8c-19.8,6-38.9,13.9-57.2,23.6
						C35.8,70.6,38.3,74.9,41.2,73.4L41.2,73.4z"/>
				</g>
			</g>
			<g>
				<g>
					<path class="st2" d="M58.1,78c0,9.3,0,18.6,0,27.9c1.6-0.2,3.3-0.4,4.9-0.7c-0.2-0.8-0.3-1.7-0.5-2.5c0-3.2-5-3.2-5,0
						c0,1.9,0,2.1,0.7,3.8c0.9,2.5,4.9,2.3,4.9-0.7c0-9.3,0-18.6,0-27.9C63.1,74.8,58.1,74.8,58.1,78L58.1,78z"/>
				</g>
			</g>
			<g>
				<g>
					<path class="st2" d="M57.8,80.7c2.4-1.4,6.3-4,9.1-3.9c0.6-0.1,1.1-0.3,1.7-0.4c0.2,1,0.3,2,0.4,3c0.2,1.6,0.3,3.2,0.4,4.8
						c0.5,6.4,0.5,12.8,0.2,19.2c-0.1,3.2,4.9,3.2,5,0c0.3-5.4,0.3-10.9,0-16.3c-0.2-3.9,0.1-9.1-1.4-12.8
						c-2.9-6.7-13.8-0.3-17.8,2.1C52.5,77.9,55,82.3,57.8,80.7L57.8,80.7z"/>
				</g>
			</g>
			<g>
				<g>
					<path class="st2" d="M57.9,93.7c3.7-1.2,7.5-1.9,11.4-2.2c3.2-0.2,3.2-5.2,0-5c-4.3,0.3-8.6,1.1-12.7,2.4
						C53.5,89.8,54.8,94.6,57.9,93.7L57.9,93.7z"/>
				</g>
			</g>
			<g>
				<g>
					<path class="st2" d="M63.2,108.5c5.2-3.3,9.1-8.1,11.1-13.9c1.1-3-3.8-4.3-4.8-1.3c-1.6,4.6-4.7,8.3-8.8,10.9
						C58,105.9,60.5,110.2,63.2,108.5L63.2,108.5z"/>
				</g>
			</g>
			<g>
				<g>
					<path class="st2" d="M78.2,33.3c3.3,3,4.2,7.5,5.4,11.6c1.3,4.3,2.5,8.6,3.7,12.9c2.2,7.8,4.3,15.6,6.4,23.3
						c4.1,14.7,8.8,29.2,17.6,41.8c1.1,1.6,4.1,1.7,4.6-0.6c2.5-11,3.2-22.1,1.9-33.3c-0.3-3.2-5.4-3.2-5,0
						c1.2,10.8,0.6,21.4-1.8,32c1.5-0.2,3-0.4,4.6-0.6c-9.6-13.7-14.1-29.7-18.5-45.6c-2.3-8.6-4.7-17.2-7.2-25.7
						c-1.9-6.5-3-14.6-8.3-19.3C79.4,27.7,75.8,31.2,78.2,33.3L78.2,33.3z"/>
				</g>
			</g>
			<g>
				<g>
					<path class="st2" d="M109.5,56.3c-3.5,7.8-6.9,15.7-10.4,23.5c-1.6,3.6-3.2,7.2-4.8,10.9c-1.2,2.7-2.7,9-5.1,10.6
						c-2.6,1.8-0.1,6.1,2.5,4.3c2.5-1.7,3.3-4.3,4.5-7c2-4.5,4-9.1,6-13.6c3.9-8.7,7.7-17.5,11.6-26.2
						C115.1,55.9,110.8,53.4,109.5,56.3L109.5,56.3z"/>
				</g>
			</g>
			<g>
				<g>
					<path class="st2" d="M95.5,30.1c3.8,2,7.1,4.8,9.6,8.3c1.8,2.6,6.2,0.1,4.3-2.5c-3-4.3-6.8-7.7-11.3-10.1
						C95.2,24.3,92.6,28.6,95.5,30.1L95.5,30.1z"/>
				</g>
			</g>
		</g>
	</g>
</g>
</svg>
